<svg xmlns="http://www.w3.org/2000/svg" width="512" height="512" viewBox="0 0 512 512">
  <defs>
    <radialGradient id="bg5" cx="50%" cy="45%" r="75%">
      <stop offset="0%" stop-color="#1a0a3e"/>
      <stop offset="50%" stop-color="#0d0825"/>
      <stop offset="100%" stop-color="#030112"/>
    </radialGradient>
    <linearGradient id="spiral5" x1="0%" y1="0%" x2="100%" y2="100%">
      <stop offset="0%" stop-color="#ffd54f"/>
      <stop offset="40%" stop-color="#c9a840"/>
      <stop offset="100%" stop-color="#ff8f00"/>
    </linearGradient>
    <linearGradient id="text5" x1="0%" y1="0%" x2="100%" y2="0%">
      <stop offset="0%" stop-color="#ffd54f"/>
      <stop offset="100%" stop-color="#ff8f00"/>
    </linearGradient>
  </defs>
  <rect width="512" height="512" rx="110" fill="url(#bg5)"/>
  <rect width="512" height="512" rx="110" fill="none" stroke="rgba(255,213,79,0.2)" stroke-width="2"/>
  
  <!-- Golden fibonacci spiral -->
  <path d="M245,200 
    C245,145 300,110 335,145
    C375,185 345,260 295,280
    C245,300 175,265 165,210
    C155,150 195,80 260,70
    C335,55 405,120 410,200
    " fill="none" stroke="url(#spiral5)" stroke-width="3" stroke-linecap="round" opacity="0.8"/>
  
  <!-- Larger outer arc -->
  <path d="M410,200
    C415,300 325,380 215,370
    C115,360 65,250 80,145
    " fill="none" stroke="url(#spiral5)" stroke-width="2" stroke-linecap="round" opacity="0.4"/>
      <circle cx="120" cy="100" r="2.5" fill="#ffd54f" opacity="0.7"/>
  <circle cx="120" cy="100" r="5" fill="rgba(255,213,79,0.15)"/>
  <circle cx="170" cy="80" r="2.5" fill="#ffd54f" opacity="0.7"/>
  <circle cx="170" cy="80" r="5" fill="rgba(255,213,79,0.15)"/>
  <circle cx="200" cy="120" r="2.5" fill="#ffd54f" opacity="0.7"/>
  <circle cx="200" cy="120" r="5" fill="rgba(255,213,79,0.15)"/>
  <circle cx="330" cy="90" r="2.5" fill="#ffd54f" opacity="0.7"/>
  <circle cx="330" cy="90" r="5" fill="rgba(255,213,79,0.15)"/>
  <circle cx="380" cy="120" r="2.5" fill="#ffd54f" opacity="0.7"/>
  <circle cx="380" cy="120" r="5" fill="rgba(255,213,79,0.15)"/>
  <circle cx="360" cy="160" r="2.5" fill="#ffd54f" opacity="0.7"/>
  <circle cx="360" cy="160" r="5" fill="rgba(255,213,79,0.15)"/>
  <circle cx="100" cy="280" r="2.5" fill="#ffd54f" opacity="0.7"/>
  <circle cx="100" cy="280" r="5" fill="rgba(255,213,79,0.15)"/>
  <circle cx="140" cy="310" r="2.5" fill="#ffd54f" opacity="0.7"/>
  <circle cx="140" cy="310" r="5" fill="rgba(255,213,79,0.15)"/>
  <circle cx="400" cy="250" r="2.5" fill="#ffd54f" opacity="0.7"/>
  <circle cx="400" cy="250" r="5" fill="rgba(255,213,79,0.15)"/>
  <circle cx="430" cy="290" r="2.5" fill="#ffd54f" opacity="0.7"/>
  <circle cx="430" cy="290" r="5" fill="rgba(255,213,79,0.15)"/>
  <circle cx="150" cy="170" r="2.5" fill="#ffd54f" opacity="0.7"/>
  <circle cx="150" cy="170" r="5" fill="rgba(255,213,79,0.15)"/>
  <line x1="120" y1="100" x2="170" y2="80" stroke="rgba(255,213,79,0.2)" stroke-width="1"/>
  <line x1="170" y1="80" x2="200" y2="120" stroke="rgba(255,213,79,0.2)" stroke-width="1"/>
  <line x1="330" y1="90" x2="380" y2="120" stroke="rgba(255,213,79,0.2)" stroke-width="1"/>
  <line x1="380" y1="120" x2="360" y2="160" stroke="rgba(255,213,79,0.2)" stroke-width="1"/>
  <line x1="100" y1="280" x2="140" y2="310" stroke="rgba(255,213,79,0.2)" stroke-width="1"/>
  <line x1="400" y1="250" x2="430" y2="290" stroke="rgba(255,213,79,0.2)" stroke-width="1"/>

  <!-- Center bright dot -->
  <circle cx="245" cy="200" r="5" fill="#ffd54f"/>
  <circle cx="245" cy="200" r="12" fill="rgba(255,213,79,0.15)"/>
  <circle cx="245" cy="200" r="22" fill="rgba(255,213,79,0.05)"/>
  
  <!-- Text -->
  <text x="256" y="392" text-anchor="middle" font-family="'Georgia', serif" font-weight="700" font-size="44" fill="url(#text5)" letter-spacing="3">ASTRO</text>
  <text x="256" y="438" text-anchor="middle" font-family="'Georgia', serif" font-weight="300" font-size="30" fill="rgba(255,213,79,0.55)" letter-spacing="8">CURRENTS</text>
</svg>