<svg xmlns="http://www.w3.org/2000/svg" width="512" height="512" viewBox="0 0 512 512">
  <defs>
    <radialGradient id="bg14" cx="50%" cy="45%" r="70%">
      <stop offset="0%" stop-color="#100828"/><stop offset="100%" stop-color="#030108"/>
    </radialGradient>
    <radialGradient id="sun14" cx="50%" cy="50%" r="50%">
      <stop offset="0%" stop-color="#fff8e1"/><stop offset="50%" stop-color="#ffd54f"/><stop offset="100%" stop-color="#ff8f00"/>
    </radialGradient>
    <filter id="sg14"><feGaussianBlur stdDeviation="6"/></filter>
  </defs>
  <rect width="512" height="512" rx="110" fill="url(#bg14)"/>
  <rect width="512" height="512" rx="110" fill="none" stroke="rgba(255,213,79,0.2)" stroke-width="2"/>
  
  <!-- Orbital rings -->
  <circle cx="256" cy="200" r="50" fill="none" stroke="rgba(255,213,79,0.12)" stroke-width="0.8"/>
  <circle cx="256" cy="200" r="80" fill="none" stroke="rgba(255,213,79,0.1)" stroke-width="0.8"/>
  <circle cx="256" cy="200" r="110" fill="none" stroke="rgba(255,213,79,0.08)" stroke-width="0.8"/>
  <circle cx="256" cy="200" r="140" fill="none" stroke="rgba(255,213,79,0.06)" stroke-width="0.8"/>
  
  <!-- Sun center -->
  <circle cx="256" cy="200" r="22" fill="url(#sun14)"/>
  <circle cx="256" cy="200" r="32" fill="rgba(255,213,79,0.1)" filter="url(#sg14)"/>
    <circle cx="281" cy="157" r="4" fill="#9e9e9e"/>
  <circle cx="325" cy="240" r="6" fill="#f8bbd0"/>
  <circle cx="218" cy="303" r="8" fill="#4fc3f7"/>
  <circle cx="149" cy="110" r="6" fill="#ff8a65"/>
  <circle cx="362" cy="172" r="2.5" fill="rgba(200,200,220,0.8)"/>

  <!-- Stars -->
  <circle cx="100" cy="80" r="1.5" fill="#ffd54f" opacity="0.5"/>
  <circle cx="420" cy="90" r="1" fill="white" opacity="0.4"/>
  <circle cx="85" cy="310" r="1.2" fill="white" opacity="0.3"/>
  <circle cx="435" cy="280" r="1.5" fill="#ffd54f" opacity="0.3"/>
  
  <text x="256" y="395" text-anchor="middle" font-family="'Georgia',serif" font-weight="700" font-size="44" fill="url(#sun14)" letter-spacing="3">ASTRO</text>
  <text x="256" y="440" text-anchor="middle" font-family="'Georgia',serif" font-weight="300" font-size="28" fill="rgba(255,213,79,0.55)" letter-spacing="8">CURRENTS</text>
</svg>