<svg xmlns="http://www.w3.org/2000/svg" width="512" height="512" viewBox="0 0 512 512">
  <defs>
    <radialGradient id="bg9" cx="50%" cy="42%" r="75%">
      <stop offset="0%" stop-color="#1a0a3e"/>
      <stop offset="100%" stop-color="#030112"/>
    </radialGradient>
    <linearGradient id="gold9" x1="0%" y1="0%" x2="100%" y2="100%">
      <stop offset="0%" stop-color="#ffd54f"/>
      <stop offset="100%" stop-color="#ff8f00"/>
    </linearGradient>
    <radialGradient id="earth9" cx="40%" cy="40%" r="50%">
      <stop offset="0%" stop-color="#4fc3f7"/><stop offset="100%" stop-color="#0277bd"/>
    </radialGradient>
    <radialGradient id="mars9" cx="40%" cy="40%" r="50%">
      <stop offset="0%" stop-color="#ff8a65"/><stop offset="100%" stop-color="#d84315"/>
    </radialGradient>
    <radialGradient id="venus9" cx="40%" cy="40%" r="50%">
      <stop offset="0%" stop-color="#ce93d8"/><stop offset="100%" stop-color="#8e24aa"/>
    </radialGradient>
    <filter id="glow9"><feGaussianBlur stdDeviation="3"/></filter>
  </defs>
  <rect width="512" height="512" rx="110" fill="url(#bg9)"/>
  <rect width="512" height="512" rx="110" fill="none" stroke="rgba(255,213,79,0.2)" stroke-width="2"/>
  
  <!-- Golden spiral -->
  <path d="M240,195 C240,150 280,120 320,140 C365,160 370,210 340,240 C305,275 250,270 230,235 C205,195 225,140 275,120 C335,95 395,135 400,195 C408,270 345,330 270,325 C190,320 145,255 160,180 C175,100 255,50 335,70" 
    fill="none" stroke="url(#gold9)" stroke-width="2.5" stroke-linecap="round" opacity="0.75"/>
  
  <!-- Center golden dot -->
  <circle cx="240" cy="195" r="6" fill="#ffd54f"/>
  <circle cx="240" cy="195" r="14" fill="rgba(255,213,79,0.12)"/>
  
  <!-- Planets along the spiral path -->
  <circle cx="340" cy="140" r="10" fill="url(#mars9)"/>
  <circle cx="230" cy="235" r="12" fill="url(#earth9)"/>
  <circle cx="160" cy="180" r="8" fill="url(#venus9)"/>
  <circle cx="400" cy="195" r="14" fill="rgba(255,213,79,0.7)"/>
  <circle cx="400" cy="195" r="20" fill="rgba(255,213,79,0.08)"/>
  
  <!-- Small moon near earth -->
  <circle cx="245" cy="247" r="3.5" fill="rgba(200,200,220,0.8)"/>
  
  <!-- Stars -->
  <circle cx="100" cy="90" r="1.5" fill="#ffd54f" opacity="0.6"/>
  <circle cx="430" cy="80" r="1" fill="white" opacity="0.5"/>
  <circle cx="80" cy="300" r="1.2" fill="white" opacity="0.4"/>
  <circle cx="450" cy="310" r="1.5" fill="#ffd54f" opacity="0.3"/>
  <circle cx="350" cy="310" r="1" fill="white" opacity="0.4"/>
  
  <text x="256" y="395" text-anchor="middle" font-family="'Georgia',serif" font-weight="700" font-size="44" fill="url(#gold9)" letter-spacing="3">ASTRO</text>
  <text x="256" y="440" text-anchor="middle" font-family="'Georgia',serif" font-weight="300" font-size="28" fill="rgba(255,213,79,0.55)" letter-spacing="8">CURRENTS</text>
</svg>