<svg xmlns="http://www.w3.org/2000/svg" width="512" height="512" viewBox="0 0 512 512">
  <defs>
    <radialGradient id="bg13" cx="50%" cy="45%" r="70%">
      <stop offset="0%" stop-color="#12082e"/><stop offset="100%" stop-color="#050210"/>
    </radialGradient>
    <linearGradient id="g13" x1="0%" y1="0%" x2="100%" y2="100%">
      <stop offset="0%" stop-color="#ffd54f"/><stop offset="100%" stop-color="#c9a840"/>
    </linearGradient>
    <radialGradient id="p1_13" cx="40%" cy="40%" r="50%">
      <stop offset="0%" stop-color="#b388ff"/><stop offset="100%" stop-color="#651fff"/>
    </radialGradient>
    <radialGradient id="p2_13" cx="40%" cy="40%" r="50%">
      <stop offset="0%" stop-color="#80deea"/><stop offset="100%" stop-color="#00838f"/>
    </radialGradient>
    <radialGradient id="p3_13" cx="40%" cy="40%" r="50%">
      <stop offset="0%" stop-color="#ffab91"/><stop offset="100%" stop-color="#bf360c"/>
    </radialGradient>
  </defs>
  <rect width="512" height="512" rx="110" fill="url(#bg13)"/>
  <rect width="512" height="512" rx="110" fill="none" stroke="rgba(255,213,79,0.15)" stroke-width="2"/>
  
  <!-- Minimal spiral (fewer turns, thicker) -->
  <path d="M256,200 C256,165 285,140 315,155 C350,172 348,215 320,235 C285,258 245,245 235,215 C222,178 248,140 290,130 C340,118 385,155 388,205 C392,265 340,310 280,305 C215,300 178,245 190,185" 
    fill="none" stroke="url(#g13)" stroke-width="3" stroke-linecap="round" opacity="0.6"/>
  
  <!-- Center dot -->
  <circle cx="256" cy="200" r="4" fill="#ffd54f"/>
  
  <!-- Diagonal line connecting 3 planets -->
  <line x1="140" y1="280" x2="380" y2="110" stroke="rgba(255,255,255,0.06)" stroke-width="1"/>
  
  <!-- Three planets on the diagonal -->
  <circle cx="155" cy="270" r="20" fill="url(#p1_13)"/>
  <circle cx="155" cy="270" r="28" fill="rgba(179,136,255,0.06)"/>
  
  <circle cx="268" cy="188" r="14" fill="url(#p2_13)"/>
  
  <circle cx="368" cy="118" r="10" fill="url(#p3_13)"/>
  <circle cx="368" cy="118" r="16" fill="rgba(255,171,145,0.06)"/>
  
  <!-- Stars -->
  <circle cx="90" cy="100" r="1.5" fill="#ffd54f" opacity="0.5"/>
  <circle cx="430" cy="250" r="1.2" fill="white" opacity="0.4"/>
  <circle cx="100" cy="200" r="1" fill="white" opacity="0.3"/>
  <circle cx="420" cy="320" r="1.5" fill="#c9a840" opacity="0.3"/>
  
  <text x="256" y="395" text-anchor="middle" font-family="'Georgia',serif" font-weight="700" font-size="44" fill="url(#g13)" letter-spacing="3">ASTRO</text>
  <text x="256" y="440" text-anchor="middle" font-family="'Georgia',serif" font-weight="300" font-size="28" fill="rgba(255,213,79,0.5)" letter-spacing="8">CURRENTS</text>
</svg>